<svg width="790" height="540" viewBox="0 0 790 540" fill="none" xmlns="http://www.w3.org/2000/svg">
<path d="M354.775 24.8223L126 156.906V252.241L125.564 252.493V539.999H0V180L311.769 0L311.775 0.0117188L311.782 0L354.775 24.8223ZM623.564 275.343V539.999H498V252.501L434.775 215.998L477.775 191.173L623.564 275.343ZM623.552 180H623.564V229.156L477.775 144.985L394.775 192.904L311.775 144.984L166 229.147V180L394.775 47.916L623.552 180Z" fill="#1261A6"/>
<path d="M789.552 180H789.564V540H664V252.502L477.775 144.985L291.564 252.494V540H166V180L477.769 0L477.775 0.0117188L477.782 0L789.552 180Z" fill="#A1BF36"/>
<path d="M354.775 24.8223L126 156.906V252.241L125.564 252.493V539.999H0V180L311.769 0L311.775 0.0117188L311.782 0L354.775 24.8223ZM623.564 275.343V539.999H498V252.501L434.775 215.998L477.775 191.173L623.564 275.343ZM623.552 180H623.564V229.156L477.775 144.985L394.775 192.904L311.775 144.984L166 229.147V180L394.775 47.916L623.552 180Z" fill="#1261A6"/>
<path d="M789.552 180H789.564V540H664V252.502L477.775 144.985L291.564 252.494V540H166V180L477.769 0L477.775 0.0117188L477.782 0L789.552 180Z" fill="#A1BF36"/>
<path d="M354.775 24.8223L126 156.906V252.241L125.564 252.493V539.999H0V180L311.769 0L311.775 0.0117188L311.782 0L354.775 24.8223ZM623.564 275.343V539.999H498V252.501L434.775 215.998L477.775 191.173L623.564 275.343ZM623.552 180H623.564V229.156L477.775 144.985L394.775 192.904L311.775 144.984L166 229.147V180L394.775 47.916L623.552 180Z" fill="#1261A6"/>
<path d="M354.775 24.8223L126 156.906V252.241L125.564 252.493V539.999H0V180L311.769 0L311.775 0.0117188L311.782 0L354.775 24.8223ZM623.564 275.343V539.999H498V252.501L434.775 215.998L477.775 191.173L623.564 275.343ZM623.552 180H623.564V229.156L477.775 144.985L394.775 192.904L311.775 144.984L166 229.147V180L394.775 47.916L623.552 180Z" fill="#1261A6"/>
<path d="M789.552 180H789.564V540H664V252.502L477.775 144.985L291.564 252.494V540H166V180L477.769 0L477.775 0.0117188L477.782 0L789.552 180Z" fill="#A1BF36"/>
</svg>
